<svg width="100" height="66" viewBox="0 0 100 66" fill="none" xmlns="http://www.w3.org/2000/svg">
<path d="M56.2305 46.4609L55.2441 54.5176L50.6689 48.6777L50.0146 54H48.8965L49.8779 46.0508L54.4531 51.8809L55.1172 46.4609H56.2305ZM59.165 46.4609L58.2373 54H57.1191L58.0469 46.4609H59.165ZM66.4111 47.1348L66.2598 48.3555C65.6055 47.6914 64.8258 47.3594 63.9209 47.3594C63.1234 47.3594 62.4788 47.6426 61.9873 48.209C61.4925 48.7721 61.2451 49.5062 61.2451 50.4111C61.2451 51.2575 61.4827 51.9183 61.958 52.3936C62.43 52.8656 63.0973 53.1016 63.96 53.1016C64.6794 53.1016 65.3141 52.8802 65.8643 52.4375L65.7031 53.7607C65.0098 54.0179 64.3636 54.1465 63.7646 54.1465C62.6709 54.1465 61.7904 53.7998 61.123 53.1064C60.4557 52.4196 60.1221 51.5049 60.1221 50.3623C60.1221 49.1969 60.4769 48.2301 61.1865 47.4619C61.8994 46.6937 62.7946 46.3096 63.8721 46.3096C64.7217 46.3096 65.568 46.5846 66.4111 47.1348ZM71.7627 46.4609L71.6357 47.501H68.8672L68.6279 49.4541H71.3965L71.2793 50.4209H68.5107L68.1982 52.96H70.9668L70.835 54H66.9531L67.8809 46.4609H71.7627Z" fill="white"/>
<path d="M51.5879 59.7871L53.9219 63H52.5303L50.377 59.9141H50.1719V63H49.0342V55.4609H50.3672C51.3633 55.4609 52.0827 55.6481 52.5254 56.0225C53.0137 56.4391 53.2578 56.9893 53.2578 57.6729C53.2578 58.2067 53.1048 58.6657 52.7988 59.0498C52.4928 59.4339 52.0892 59.6797 51.5879 59.7871ZM50.1719 58.9229H50.5332C51.6107 58.9229 52.1494 58.5111 52.1494 57.6875C52.1494 56.916 51.6253 56.5303 50.5771 56.5303H50.1719V58.9229ZM59.0146 60.8809H55.6064C55.6357 61.2715 55.7627 61.5824 55.9873 61.8135C56.2119 62.0413 56.5 62.1553 56.8516 62.1553C57.125 62.1553 57.3512 62.0902 57.5303 61.96C57.7061 61.8298 57.9062 61.5889 58.1309 61.2373L59.0586 61.7549C58.9154 61.999 58.764 62.209 58.6045 62.3848C58.445 62.5573 58.2741 62.7005 58.0918 62.8145C57.9095 62.9251 57.7126 63.0065 57.501 63.0586C57.2894 63.1107 57.0599 63.1367 56.8125 63.1367C56.1029 63.1367 55.5332 62.9089 55.1035 62.4531C54.6738 61.9941 54.459 61.3854 54.459 60.627C54.459 59.875 54.6673 59.2663 55.084 58.8008C55.5039 58.3418 56.0605 58.1123 56.7539 58.1123C57.4538 58.1123 58.0072 58.3353 58.4141 58.7812C58.8177 59.224 59.0195 59.8376 59.0195 60.6221L59.0146 60.8809ZM57.8867 59.9824C57.7337 59.3965 57.3643 59.1035 56.7783 59.1035C56.6449 59.1035 56.5195 59.1247 56.4023 59.167C56.2852 59.2061 56.1777 59.2646 56.0801 59.3428C55.9857 59.4176 55.9043 59.5088 55.8359 59.6162C55.7676 59.7236 55.7155 59.8457 55.6797 59.9824H57.8867ZM58.4043 55.9004L56.627 57.5117L56.0264 57.1406L57.3691 55.3633L58.4043 55.9004ZM64.8203 62.8877C64.8203 63.1123 64.8122 63.3092 64.7959 63.4785C64.7829 63.651 64.7633 63.8024 64.7373 63.9326C64.6592 64.2907 64.5062 64.5983 64.2783 64.8555C63.8486 65.3503 63.2578 65.5977 62.5059 65.5977C61.8711 65.5977 61.3486 65.4268 60.9385 65.085C60.5153 64.7334 60.2712 64.2467 60.2061 63.625H61.3096C61.3519 63.8594 61.4219 64.04 61.5195 64.167C61.7474 64.4632 62.0794 64.6113 62.5156 64.6113C63.3197 64.6113 63.7217 64.1182 63.7217 63.1318V62.4678C63.2855 62.9137 62.7826 63.1367 62.2129 63.1367C61.5651 63.1367 61.0345 62.9023 60.6211 62.4336C60.2044 61.9583 59.9961 61.3643 59.9961 60.6514C59.9961 59.958 60.1898 59.3688 60.5771 58.8838C60.9938 58.3695 61.5439 58.1123 62.2275 58.1123C62.8265 58.1123 63.3245 58.3353 63.7217 58.7812V58.2441H64.8203V62.8877ZM63.7656 60.6318C63.7656 60.1696 63.6419 59.8001 63.3945 59.5234C63.1439 59.2402 62.8232 59.0986 62.4326 59.0986C62.016 59.0986 61.6872 59.2533 61.4463 59.5625C61.2282 59.8392 61.1191 60.1973 61.1191 60.6367C61.1191 61.0697 61.2282 61.4245 61.4463 61.7012C61.6839 62.0039 62.0127 62.1553 62.4326 62.1553C62.8525 62.1553 63.1846 62.0023 63.4287 61.6963C63.6533 61.4196 63.7656 61.0648 63.7656 60.6318ZM67.3057 58.2441V63H66.207V58.2441H67.3057ZM66.041 56.2666C66.041 56.0745 66.111 55.9085 66.251 55.7686C66.391 55.6286 66.5586 55.5586 66.7539 55.5586C66.9525 55.5586 67.1217 55.6286 67.2617 55.7686C67.4017 55.9053 67.4717 56.0729 67.4717 56.2715C67.4717 56.4701 67.4017 56.6393 67.2617 56.7793C67.125 56.9193 66.9574 56.9893 66.7588 56.9893C66.5602 56.9893 66.391 56.9193 66.251 56.7793C66.111 56.6393 66.041 56.4684 66.041 56.2666ZM68.4727 60.5879C68.4727 59.901 68.7184 59.3167 69.21 58.835C69.7015 58.3532 70.3005 58.1123 71.0068 58.1123C71.7165 58.1123 72.3187 58.3548 72.8135 58.8398C73.3018 59.3249 73.5459 59.9206 73.5459 60.627C73.5459 61.3398 73.3001 61.9372 72.8086 62.4189C72.3138 62.8975 71.7067 63.1367 70.9873 63.1367C70.2744 63.1367 69.6771 62.8926 69.1953 62.4043C68.7135 61.9225 68.4727 61.3171 68.4727 60.5879ZM69.5957 60.6074C69.5957 61.0827 69.7227 61.4587 69.9766 61.7354C70.237 62.0153 70.5804 62.1553 71.0068 62.1553C71.4365 62.1553 71.7799 62.0169 72.0371 61.7402C72.2943 61.4635 72.4229 61.0941 72.4229 60.6318C72.4229 60.1696 72.2943 59.8001 72.0371 59.5234C71.7767 59.2435 71.4333 59.1035 71.0068 59.1035C70.5869 59.1035 70.2467 59.2435 69.9863 59.5234C69.7259 59.8034 69.5957 60.1647 69.5957 60.6074ZM74.7129 58.2441H75.8164V58.6836C76.2005 58.3027 76.6335 58.1123 77.1152 58.1123C77.6686 58.1123 78.0999 58.2865 78.4092 58.6348C78.6761 58.931 78.8096 59.4144 78.8096 60.085V63H77.7061V60.3438C77.7061 59.875 77.641 59.5511 77.5107 59.3721C77.3838 59.1898 77.1527 59.0986 76.8174 59.0986C76.4528 59.0986 76.194 59.2191 76.041 59.46C75.8913 59.6976 75.8164 60.1126 75.8164 60.7051V63H74.7129V58.2441ZM87.7598 56.584L86.8369 57.1309C86.6644 56.8314 86.5 56.6361 86.3438 56.5449C86.181 56.4408 85.971 56.3887 85.7139 56.3887C85.3981 56.3887 85.1361 56.4782 84.9277 56.6572C84.7194 56.833 84.6152 57.0544 84.6152 57.3213C84.6152 57.6891 84.8887 57.9854 85.4355 58.21L86.1875 58.5176C86.7995 58.765 87.2471 59.0677 87.5303 59.4258C87.8135 59.7806 87.9551 60.2168 87.9551 60.7344C87.9551 61.4277 87.724 62.0007 87.2617 62.4531C86.7962 62.9089 86.2184 63.1367 85.5283 63.1367C84.874 63.1367 84.3337 62.943 83.9072 62.5557C83.4873 62.1683 83.2253 61.623 83.1211 60.9199L84.2734 60.666C84.3255 61.1087 84.4167 61.4147 84.5469 61.584C84.7812 61.9095 85.123 62.0723 85.5723 62.0723C85.9271 62.0723 86.2217 61.9535 86.4561 61.7158C86.6904 61.4782 86.8076 61.1771 86.8076 60.8125C86.8076 60.666 86.7865 60.5326 86.7441 60.4121C86.7051 60.2884 86.6416 60.1761 86.5537 60.0752C86.4691 59.971 86.3584 59.875 86.2217 59.7871C86.085 59.696 85.9222 59.6097 85.7334 59.5283L85.0059 59.2256C83.974 58.7894 83.458 58.1514 83.458 57.3115C83.458 56.7451 83.6745 56.2715 84.1074 55.8906C84.5404 55.5065 85.0791 55.3145 85.7236 55.3145C86.5928 55.3145 87.2715 55.7376 87.7598 56.584ZM90.2158 58.2441V60.9736C90.2158 61.7614 90.5267 62.1553 91.1484 62.1553C91.7702 62.1553 92.0811 61.7614 92.0811 60.9736V58.2441H93.1797V60.998C93.1797 61.3789 93.1325 61.7077 93.0381 61.9844C92.9469 62.2318 92.7891 62.4548 92.5645 62.6533C92.1934 62.9756 91.7214 63.1367 91.1484 63.1367C90.5788 63.1367 90.1084 62.9756 89.7373 62.6533C89.5094 62.4548 89.3483 62.2318 89.2539 61.9844C89.1628 61.763 89.1172 61.4342 89.1172 60.998V58.2441H90.2158ZM98.0723 54.7529H99.1758V63H98.0723V62.502C97.6393 62.9251 97.1494 63.1367 96.6025 63.1367C95.9515 63.1367 95.4111 62.8991 94.9814 62.4238C94.555 61.9388 94.3418 61.3333 94.3418 60.6074C94.3418 59.8978 94.555 59.3053 94.9814 58.8301C95.4046 58.3516 95.9368 58.1123 96.5781 58.1123C97.1348 58.1123 97.6328 58.3402 98.0723 58.7959V54.7529ZM95.4648 60.6074C95.4648 61.0632 95.5869 61.4342 95.8311 61.7207C96.0817 62.0104 96.3975 62.1553 96.7783 62.1553C97.1852 62.1553 97.514 62.0153 97.7646 61.7354C98.0153 61.4456 98.1406 61.0778 98.1406 60.6318C98.1406 60.1859 98.0153 59.818 97.7646 59.5283C97.514 59.2451 97.1885 59.1035 96.7881 59.1035C96.4105 59.1035 96.0947 59.2467 95.8408 59.5332C95.5902 59.8229 95.4648 60.181 95.4648 60.6074Z" fill="white"/>
<line x1="45.5" y1="46" x2="45.5" y2="62" stroke="white"/>
<path d="M0.666656 40.5236H28.175V54.827H41.9V28.9788H14.4417L41.9 0.423737H28.175L0.666656 28.9788V40.5236Z" fill="white"/>
<path d="M47.825 14.7185L61.5583 0.423737H47.825V14.7185Z" fill="white"/>
<path d="M61.5583 14.7185L47.825 28.9788V43.2303H61.5583V28.9788L75.3333 14.7185V0.423737H61.5583V14.7185Z" fill="white"/>
<path d="M75.3333 28.9788L61.5583 43.2303H75.3333V28.9788Z" fill="white"/>
</svg>
