<svg width="65" height="65" viewBox="0 0 65 65" fill="none" xmlns="http://www.w3.org/2000/svg">
<path d="M14.6552 29.5087L0 49.3601L13.8557 46.6109L15.0824 60.0503L28.5131 41.6864" fill="#515151"/>
<path d="M50.3448 29.5087L65 49.3601L51.1444 46.6109L49.9176 60.0503L36.4869 41.6864" fill="#515151"/>
<path d="M32.2218 43.6579C42.9846 43.6579 51.7095 34.9928 51.7095 24.3038C51.7095 13.6148 42.9846 4.9497 32.2218 4.9497C21.459 4.9497 12.7341 13.6148 12.7341 24.3038C12.7341 34.9928 21.459 43.6579 32.2218 43.6579Z" fill="#A6A6A6"/>
<path d="M32.2218 36.7202C39.1264 36.7202 44.7236 31.1612 44.7236 24.3038C44.7236 17.4464 39.1264 11.8874 32.2218 11.8874C25.3172 11.8874 19.7199 17.4464 19.7199 24.3038C19.7199 31.1612 25.3172 36.7202 32.2218 36.7202Z" fill="#515151"/>
<path d="M24.4041 31V29.2273L28.5462 25.392C28.8984 25.0511 29.1939 24.7443 29.4325 24.4716C29.675 24.1989 29.8587 23.9318 29.9837 23.6705C30.1087 23.4053 30.1712 23.1193 30.1712 22.8125C30.1712 22.4716 30.0935 22.178 29.9382 21.9318C29.7829 21.6818 29.5708 21.4905 29.3018 21.358C29.0329 21.2216 28.728 21.1534 28.3871 21.1534C28.031 21.1534 27.7204 21.2254 27.4553 21.3693C27.1901 21.5133 26.9856 21.7197 26.8416 21.9886C26.6977 22.2576 26.6257 22.5777 26.6257 22.9489H24.2905C24.2905 22.1875 24.4628 21.5265 24.8075 20.9659C25.1522 20.4053 25.6352 19.9716 26.2564 19.6648C26.8776 19.358 27.5935 19.2045 28.4041 19.2045C29.2375 19.2045 29.9628 19.3523 30.5803 19.6477C31.2015 19.9394 31.6844 20.3447 32.0291 20.8636C32.3738 21.3826 32.5462 21.9773 32.5462 22.6477C32.5462 23.0871 32.459 23.5208 32.2848 23.9489C32.1143 24.3769 31.8094 24.8523 31.37 25.375C30.9306 25.8939 30.3113 26.517 29.5121 27.2443L27.8132 28.9091V28.9886H32.6996V31H24.4041Z" fill="white"/>
<path d="M37.1404 18.6364V23H36.3436L34.4451 20.2536H34.4132V23H33.4906V18.6364H34.3002L36.1838 21.3807H36.2221V18.6364H37.1404ZM39.4496 23H37.9027V18.6364H39.4624C39.9013 18.6364 40.2791 18.7237 40.5959 18.8984C40.9126 19.0717 41.1563 19.321 41.3267 19.6463C41.4986 19.9716 41.5845 20.3608 41.5845 20.8139C41.5845 21.2685 41.4986 21.6591 41.3267 21.9858C41.1563 22.3125 40.9112 22.5632 40.5916 22.7379C40.2734 22.9126 39.8928 23 39.4496 23ZM38.8253 22.2095H39.4112C39.6839 22.2095 39.9134 22.1612 40.0994 22.0646C40.2869 21.9666 40.4276 21.8153 40.5213 21.6108C40.6165 21.4048 40.6641 21.1392 40.6641 20.8139C40.6641 20.4915 40.6165 20.228 40.5213 20.0234C40.4276 19.8189 40.2876 19.6683 40.1016 19.5717C39.9155 19.4751 39.6861 19.4268 39.4134 19.4268H38.8253V22.2095Z" fill="white"/>
</svg>
