<svg width="30" height="30" viewBox="0 0 30 30" fill="none" xmlns="http://www.w3.org/2000/svg">
<path fill-rule="evenodd" clip-rule="evenodd" d="M11.2507 1.04651H5C2.79086 1.04651 1 2.83737 1 5.04651V19C1 21.2091 2.79086 23 5 23H24.6617C27.0577 23 29 21.0577 29 18.6617C29 16.7307 28.3559 14.8549 27.1696 13.3312L21.5082 6.06002C19.0451 2.8965 15.26 1.04651 11.2507 1.04651ZM8.48836 17.7273V5.98661C8.48836 4.72792 7.46798 3.70754 6.20929 3.70754C4.95059 3.70754 3.93022 4.72792 3.93022 5.98661V17.7273C3.93022 18.986 4.95059 20.0063 6.20929 20.0063C7.46798 20.0063 8.48836 18.986 8.48836 17.7273ZM10.4419 5.20759V10.6843C10.4419 12.8934 12.2327 14.6843 14.4419 14.6843H20.0075C20.8112 14.6843 21.4378 13.9878 21.353 13.1885C20.8291 8.24733 16.8834 4.34959 11.9391 3.85677C11.1398 3.77711 10.4419 4.40436 10.4419 5.20759Z" fill="white"/>
<path d="M27.1696 13.3312L27.5641 13.0241L27.5641 13.0241L27.1696 13.3312ZM21.5082 6.06002L21.1137 6.36719L21.1137 6.36719L21.5082 6.06002ZM21.353 13.1885L20.8558 13.2412L20.8558 13.2412L21.353 13.1885ZM11.9391 3.85677L11.9887 3.35924L11.9887 3.35924L11.9391 3.85677ZM5 1.54651H11.2507V0.546509H5V1.54651ZM1.5 5.04651C1.5 3.11351 3.067 1.54651 5 1.54651V0.546509C2.51472 0.546509 0.5 2.56123 0.5 5.04651H1.5ZM1.5 19V5.04651H0.5V19H1.5ZM5 22.5C3.067 22.5 1.5 20.933 1.5 19H0.5C0.5 21.4853 2.51472 23.5 5 23.5V22.5ZM24.6617 22.5H5V23.5H24.6617V22.5ZM28.5 18.6617C28.5 20.7815 26.7815 22.5 24.6617 22.5V23.5C27.3338 23.5 29.5 21.3338 29.5 18.6617H28.5ZM26.775 13.6384C27.893 15.0742 28.5 16.842 28.5 18.6617H29.5C29.5 16.6194 28.8187 14.6355 27.5641 13.0241L26.775 13.6384ZM21.1137 6.36719L26.775 13.6384L27.5641 13.0241L21.9027 5.75284L21.1137 6.36719ZM11.2507 1.54651C15.1058 1.54651 18.7453 3.32535 21.1137 6.36719L21.9027 5.75284C19.3448 2.46766 15.4142 0.546509 11.2507 0.546509V1.54651ZM7.98836 5.98661V17.7273H8.98836V5.98661H7.98836ZM6.20929 4.20754C7.19184 4.20754 7.98836 5.00406 7.98836 5.98661H8.98836C8.98836 4.45177 7.74412 3.20754 6.20929 3.20754V4.20754ZM4.43022 5.98661C4.43022 5.00406 5.22674 4.20754 6.20929 4.20754V3.20754C4.67445 3.20754 3.43022 4.45178 3.43022 5.98661H4.43022ZM4.43022 17.7273V5.98661H3.43022V17.7273H4.43022ZM6.20929 19.5063C5.22674 19.5063 4.43022 18.7098 4.43022 17.7273H3.43022C3.43022 19.2621 4.67445 20.5063 6.20929 20.5063V19.5063ZM7.98836 17.7273C7.98836 18.7098 7.19184 19.5063 6.20929 19.5063V20.5063C7.74413 20.5063 8.98836 19.2621 8.98836 17.7273H7.98836ZM10.9419 10.6843V5.20759H9.94188V10.6843H10.9419ZM14.4419 14.1843C12.5089 14.1843 10.9419 12.6173 10.9419 10.6843H9.94188C9.94188 13.1696 11.9566 15.1843 14.4419 15.1843V14.1843ZM20.0075 14.1843H14.4419V15.1843H20.0075V14.1843ZM20.8558 13.2412C20.9093 13.7451 20.5142 14.1843 20.0075 14.1843V15.1843C21.1082 15.1843 21.9663 14.2304 21.8502 13.1358L20.8558 13.2412ZM11.8895 4.35431C16.5996 4.82378 20.357 8.53714 20.8558 13.2412L21.8502 13.1358C21.3012 7.95752 17.1673 3.87541 11.9887 3.35924L11.8895 4.35431ZM10.9419 5.20759C10.9419 4.70238 11.3822 4.30375 11.8895 4.35431L11.9887 3.35924C10.8974 3.25047 9.94188 4.10634 9.94188 5.20759H10.9419Z" fill="white"/>
<path d="M27.5 25H2.5C1.67157 25 1 25.6716 1 26.5C1 27.3284 1.67157 28 2.5 28H27.5C28.3284 28 29 27.3284 29 26.5C29 25.6716 28.3284 25 27.5 25Z" fill="white" stroke="white"/>
</svg>
