<svg width="65" height="65" viewBox="0 0 65 65" fill="none" xmlns="http://www.w3.org/2000/svg">
<path d="M14.6552 29.5087L0 49.3601L13.8557 46.6109L15.0824 60.0503L28.5131 41.6864" fill="#A35B19"/>
<path d="M50.3448 29.5087L65 49.3601L51.1444 46.6109L49.9176 60.0503L36.4869 41.6864" fill="#A35B19"/>
<path d="M32.2218 43.6579C42.9846 43.6579 51.7095 34.9928 51.7095 24.3038C51.7095 13.6148 42.9846 4.9497 32.2218 4.9497C21.459 4.9497 12.7341 13.6148 12.7341 24.3038C12.7341 34.9928 21.459 43.6579 32.2218 43.6579Z" fill="#D19533"/>
<path d="M32.2218 36.7202C39.1263 36.7202 44.7236 31.1612 44.7236 24.3038C44.7236 17.4464 39.1263 11.8874 32.2218 11.8874C25.3172 11.8874 19.7199 17.4464 19.7199 24.3038C19.7199 31.1612 25.3172 36.7202 32.2218 36.7202Z" fill="#A35B19"/>
<path d="M28.4709 31.1591C27.6224 31.1591 26.8667 31.0133 26.2038 30.7216C25.5447 30.4261 25.0239 30.0208 24.6413 29.5057C24.2625 28.9867 24.0675 28.3883 24.0561 27.7102H26.5334C26.5485 27.9943 26.6413 28.2443 26.8118 28.4602C26.986 28.6723 27.2171 28.8371 27.505 28.9545C27.7929 29.072 28.1167 29.1307 28.4766 29.1307C28.8516 29.1307 29.183 29.0644 29.4709 28.9318C29.7588 28.7992 29.9841 28.6155 30.147 28.3807C30.3099 28.1458 30.3913 27.875 30.3913 27.5682C30.3913 27.2576 30.3042 26.983 30.13 26.7443C29.9595 26.5019 29.7133 26.3125 29.3913 26.1761C29.0732 26.0398 28.6944 25.9716 28.255 25.9716H27.1697V24.1648H28.255C28.6262 24.1648 28.9538 24.1004 29.2379 23.9716C29.5258 23.8428 29.7493 23.6648 29.9084 23.4375C30.0675 23.2064 30.147 22.9375 30.147 22.6307C30.147 22.339 30.0769 22.0833 29.9368 21.8636C29.8004 21.6402 29.6072 21.4659 29.3572 21.3409C29.111 21.2159 28.8232 21.1534 28.4936 21.1534C28.1603 21.1534 27.8554 21.214 27.5788 21.3352C27.3023 21.4527 27.0807 21.6212 26.9141 21.8409C26.7474 22.0606 26.6584 22.3182 26.647 22.6136H24.2891C24.3004 21.9432 24.4917 21.3523 24.8629 20.8409C25.2341 20.3295 25.7341 19.9299 26.3629 19.642C26.9955 19.3504 27.7095 19.2045 28.505 19.2045C29.308 19.2045 30.0107 19.3504 30.6129 19.642C31.2152 19.9337 31.683 20.3277 32.0163 20.8239C32.3535 21.3163 32.5201 21.8693 32.5163 22.483C32.5201 23.1345 32.3175 23.678 31.9084 24.1136C31.5031 24.5492 30.9747 24.8258 30.3232 24.9432V25.0341C31.1792 25.1439 31.8307 25.4413 32.2777 25.9261C32.7285 26.4072 32.9519 27.0095 32.9482 27.733C32.9519 28.3958 32.7607 28.9848 32.3743 29.5C31.9917 30.0152 31.4633 30.4205 30.7891 30.7159C30.1148 31.0114 29.3421 31.1591 28.4709 31.1591Z" fill="white"/>
<path d="M33.7279 23V18.6364H35.4495C35.779 18.6364 36.0603 18.6953 36.2932 18.8132C36.5276 18.9297 36.7059 19.0952 36.828 19.3097C36.9516 19.5227 37.0134 19.7734 37.0134 20.0618C37.0134 20.3516 36.9509 20.6009 36.8259 20.8097C36.7009 21.017 36.5198 21.1761 36.2826 21.2869C36.0468 21.3977 35.7613 21.4531 35.426 21.4531H34.2733V20.7116H35.2769C35.453 20.7116 35.5993 20.6875 35.7158 20.6392C35.8323 20.5909 35.9189 20.5185 35.9758 20.4219C36.034 20.3253 36.0631 20.2053 36.0631 20.0618C36.0631 19.9169 36.034 19.7947 35.9758 19.6953C35.9189 19.5959 35.8316 19.5206 35.7137 19.4695C35.5972 19.4169 35.4502 19.3906 35.2726 19.3906H34.6505V23H33.7279ZM36.0844 21.0142L37.1689 23H36.1505L35.0894 21.0142H36.0844ZM39.2123 23H37.6654V18.6364H39.2251C39.664 18.6364 40.0418 18.7237 40.3586 18.8984C40.6753 19.0717 40.9189 19.321 41.0894 19.6463C41.2613 19.9716 41.3472 20.3608 41.3472 20.8139C41.3472 21.2685 41.2613 21.6591 41.0894 21.9858C40.9189 22.3125 40.6739 22.5632 40.3543 22.7379C40.0361 22.9126 39.6555 23 39.2123 23ZM38.588 22.2095H39.1739C39.4466 22.2095 39.676 22.1612 39.8621 22.0646C40.0496 21.9666 40.1903 21.8153 40.284 21.6108C40.3792 21.4048 40.4268 21.1392 40.4268 20.8139C40.4268 20.4915 40.3792 20.228 40.284 20.0234C40.1903 19.8189 40.0503 19.6683 39.8643 19.5717C39.6782 19.4751 39.4488 19.4268 39.176 19.4268H38.588V22.2095Z" fill="white"/>
</svg>
