<svg width="65" height="65" viewBox="0 0 65 65" fill="none" xmlns="http://www.w3.org/2000/svg">
<path d="M14.6552 29.5087L0 49.3601L13.8557 46.6109L15.0824 60.0503L28.5131 41.6864" fill="#DB9B32"/>
<path d="M50.3448 29.5087L65 49.3601L51.1443 46.6109L49.9176 60.0503L36.4869 41.6864" fill="#DB9B32"/>
<path d="M32.2218 43.6579C42.9846 43.6579 51.7095 34.9928 51.7095 24.3038C51.7095 13.6148 42.9846 4.9497 32.2218 4.9497C21.459 4.9497 12.7341 13.6148 12.7341 24.3038C12.7341 34.9928 21.459 43.6579 32.2218 43.6579Z" fill="#FFC050"/>
<path d="M32.2218 36.7202C39.1264 36.7202 44.7236 31.1612 44.7236 24.3038C44.7236 17.4464 39.1264 11.8874 32.2218 11.8874C25.3172 11.8874 19.7199 17.4464 19.7199 24.3038C19.7199 31.1612 25.3172 36.7202 32.2218 36.7202Z" fill="#DB9B32"/>
<path d="M30.0916 19.3636V31H27.6314V21.6989H27.5632L24.8984 23.3693V21.1875L27.7791 19.3636H30.0916Z" fill="white"/>
<path d="M35.7767 19.8913C35.7597 19.7195 35.6865 19.5859 35.5573 19.4908C35.428 19.3956 35.2526 19.348 35.031 19.348C34.8804 19.348 34.7533 19.3693 34.6496 19.4119C34.5459 19.4531 34.4664 19.5107 34.411 19.5845C34.357 19.6584 34.33 19.7422 34.33 19.8359C34.3271 19.9141 34.3435 19.9822 34.379 20.0405C34.4159 20.0987 34.4664 20.1491 34.5303 20.1918C34.5942 20.233 34.6681 20.2692 34.7519 20.3004C34.8357 20.3303 34.9252 20.3558 35.0203 20.3771L35.4124 20.4709C35.6027 20.5135 35.7774 20.5703 35.9365 20.6413C36.0956 20.7124 36.2334 20.7997 36.3499 20.9034C36.4664 21.0071 36.5566 21.1293 36.6205 21.2699C36.6858 21.4105 36.7192 21.5717 36.7206 21.7536C36.7192 22.0206 36.651 22.2521 36.5161 22.4482C36.3825 22.6428 36.1894 22.794 35.9365 22.902C35.6851 23.0085 35.3818 23.0618 35.0267 23.0618C34.6744 23.0618 34.3676 23.0078 34.1063 22.8999C33.8463 22.7919 33.6432 22.6321 33.4969 22.4205C33.352 22.2074 33.276 21.9439 33.2689 21.63H34.1617C34.1716 21.7763 34.2135 21.8984 34.2874 21.9964C34.3627 22.093 34.4628 22.1662 34.5878 22.2159C34.7142 22.2642 34.857 22.2884 35.0161 22.2884C35.1723 22.2884 35.308 22.2656 35.423 22.2202C35.5395 22.1747 35.6297 22.1115 35.6936 22.0305C35.7575 21.9496 35.7895 21.8565 35.7895 21.7514C35.7895 21.6534 35.7604 21.571 35.7021 21.5043C35.6453 21.4375 35.5615 21.3807 35.4507 21.3338C35.3414 21.2869 35.2071 21.2443 35.048 21.206L34.5729 21.0866C34.205 20.9972 33.9145 20.8572 33.7014 20.6669C33.4884 20.4766 33.3825 20.2202 33.384 19.8977C33.3825 19.6335 33.4529 19.4027 33.5949 19.2053C33.7384 19.0078 33.9351 18.8537 34.1851 18.7429C34.4351 18.6321 34.7192 18.5767 35.0374 18.5767C35.3612 18.5767 35.6439 18.6321 35.8854 18.7429C36.1283 18.8537 36.3172 19.0078 36.4521 19.2053C36.5871 19.4027 36.6567 19.6314 36.661 19.8913H35.7767ZM37.175 19.397V18.6364H40.7588V19.397H39.4229V23H38.5109V19.397H37.175Z" fill="white"/>
</svg>
